<svg xmlns="http://www.w3.org/2000/svg" viewBox="0 0 1000 340" role="img" aria-labelledby="title desc"><title id="title">eumatheussantiago contribution activity</title><desc id="desc">Public GitHub calendar from 2026-09-03 to 2026-10-03. 1133 contributions.</desc><rect width="1000" height="340" rx="12" fill="#0D1117"/><g font-family="DejaVu Sans,Arial,sans-serif"><text x="500" y="34" text-anchor="middle" fill="#A78BFA" font-size="21" font-weight="600">Contribution Activity</text><text x="500" y="58" text-anchor="middle" fill="#94A3B8" font-size="12">2026-09-03 to 2026-10-03 · public GitHub calendar</text><path d="M60,268.00H972" stroke="#25263D" stroke-width="1"/><text x="46" y="272.00" text-anchor="end" fill="#94A3B8" font-size="12">0</text><path d="M60,222.50H972" stroke="#25263D" stroke-width="1"/><text x="46" y="226.50" text-anchor="end" fill="#94A3B8" font-size="12">69</text><path d="M60,177.00H972" stroke="#25263D" stroke-width="1"/><text x="46" y="181.00" text-anchor="end" fill="#94A3B8" font-size="12">138</text><path d="M60,131.50H972" stroke="#25263D" stroke-width="1"/><text x="46" y="135.50" text-anchor="end" fill="#94A3B8" font-size="12">207</text><path d="M60,86.00H972" stroke="#25263D" stroke-width="1"/><text x="46" y="90.00" text-anchor="end" fill="#94A3B8" font-size="12">276</text><polygon points="60,268 60.00,260.75 90.40,258.77 120.80,132.16 151.20,87.98 181.60,265.36 212.00,264.70 242.40,261.41 272.80,202.06 303.20,222.50 333.60,254.15 364.00,252.83 394.40,227.12 424.80,265.36 455.20,260.09 485.60,257.45 516.00,254.81 546.40,266.68 576.80,268.00 607.20,260.75 637.60,261.41 668.00,246.24 698.40,237.01 728.80,242.28 759.20,262.07 789.60,262.07 820.00,262.07 850.40,264.70 880.80,236.35 911.20,242.28 941.60,262.72 972.00,258.77 972,268" fill="#6D28D9" opacity="0.22"/><polyline points="60.00,260.75 90.40,258.77 120.80,132.16 151.20,87.98 181.60,265.36 212.00,264.70 242.40,261.41 272.80,202.06 303.20,222.50 333.60,254.15 364.00,252.83 394.40,227.12 424.80,265.36 455.20,260.09 485.60,257.45 516.00,254.81 546.40,266.68 576.80,268.00 607.20,260.75 637.60,261.41 668.00,246.24 698.40,237.01 728.80,242.28 759.20,262.07 789.60,262.07 820.00,262.07 850.40,264.70 880.80,236.35 911.20,242.28 941.60,262.72 972.00,258.77" stroke="#818CF8" stroke-width="3" fill="none" stroke-linejoin="round"/><circle cx="60.00" cy="260.75" r="3.5" fill="#C4B5FD"><title>2026-09-03: 11 contributions</title></circle><circle cx="90.40" cy="258.77" r="3.5" fill="#C4B5FD"><title>2026-09-04: 14 contributions</title></circle><circle cx="120.80" cy="132.16" r="3.5" fill="#C4B5FD"><title>2026-09-05: 206 contributions</title></circle><circle cx="151.20" cy="87.98" r="3.5" fill="#C4B5FD"><title>2026-09-06: 273 contributions</title></circle><circle cx="181.60" cy="265.36" r="3.5" fill="#C4B5FD"><title>2026-09-07: 4 contributions</title></circle><circle cx="212.00" cy="264.70" r="3.5" fill="#C4B5FD"><title>2026-09-08: 5 contributions</title></circle><circle cx="242.40" cy="261.41" r="3.5" fill="#C4B5FD"><title>2026-09-09: 10 contributions</title></circle><circle cx="272.80" cy="202.06" r="3.5" fill="#C4B5FD"><title>2026-09-10: 100 contributions</title></circle><circle cx="303.20" cy="222.50" r="3.5" fill="#C4B5FD"><title>2026-09-11: 69 contributions</title></circle><circle cx="333.60" cy="254.15" r="3.5" fill="#C4B5FD"><title>2026-09-12: 21 contributions</title></circle><circle cx="364.00" cy="252.83" r="3.5" fill="#C4B5FD"><title>2026-09-13: 23 contributions</title></circle><circle cx="394.40" cy="227.12" r="3.5" fill="#C4B5FD"><title>2026-09-14: 62 contributions</title></circle><circle cx="424.80" cy="265.36" r="3.5" fill="#C4B5FD"><title>2026-09-15: 4 contributions</title></circle><circle cx="455.20" cy="260.09" r="3.5" fill="#C4B5FD"><title>2026-09-16: 12 contributions</title></circle><circle cx="485.60" cy="257.45" r="3.5" fill="#C4B5FD"><title>2026-09-17: 16 contributions</title></circle><circle cx="516.00" cy="254.81" r="3.5" fill="#C4B5FD"><title>2026-09-18: 20 contributions</title></circle><circle cx="546.40" cy="266.68" r="3.5" fill="#C4B5FD"><title>2026-09-19: 2 contributions</title></circle><circle cx="576.80" cy="268.00" r="3.5" fill="#C4B5FD"><title>2026-09-20: 0 contributions</title></circle><circle cx="607.20" cy="260.75" r="3.5" fill="#C4B5FD"><title>2026-09-21: 11 contributions</title></circle><circle cx="637.60" cy="261.41" r="3.5" fill="#C4B5FD"><title>2026-09-22: 10 contributions</title></circle><circle cx="668.00" cy="246.24" r="3.5" fill="#C4B5FD"><title>2026-09-23: 33 contributions</title></circle><circle cx="698.40" cy="237.01" r="3.5" fill="#C4B5FD"><title>2026-09-24: 47 contributions</title></circle><circle cx="728.80" cy="242.28" r="3.5" fill="#C4B5FD"><title>2026-09-25: 39 contributions</title></circle><circle cx="759.20" cy="262.07" r="3.5" fill="#C4B5FD"><title>2026-09-26: 9 contributions</title></circle><circle cx="789.60" cy="262.07" r="3.5" fill="#C4B5FD"><title>2026-09-27: 9 contributions</title></circle><circle cx="820.00" cy="262.07" r="3.5" fill="#C4B5FD"><title>2026-09-28: 9 contributions</title></circle><circle cx="850.40" cy="264.70" r="3.5" fill="#C4B5FD"><title>2026-09-29: 5 contributions</title></circle><circle cx="880.80" cy="236.35" r="3.5" fill="#C4B5FD"><title>2026-09-30: 48 contributions</title></circle><circle cx="911.20" cy="242.28" r="3.5" fill="#C4B5FD"><title>2026-10-01: 39 contributions</title></circle><circle cx="941.60" cy="262.72" r="3.5" fill="#C4B5FD"><title>2026-10-02: 8 contributions</title></circle><circle cx="972.00" cy="258.77" r="3.5" fill="#C4B5FD"><title>2026-10-03: 14 contributions</title></circle><text x="60.00" y="295" text-anchor="middle" fill="#94A3B8" font-size="12">Sep 03</text><text x="212.00" y="295" text-anchor="middle" fill="#94A3B8" font-size="12">Sep 08</text><text x="364.00" y="295" text-anchor="middle" fill="#94A3B8" font-size="12">Sep 13</text><text x="516.00" y="295" text-anchor="middle" fill="#94A3B8" font-size="12">Sep 18</text><text x="668.00" y="295" text-anchor="middle" fill="#94A3B8" font-size="12">Sep 23</text><text x="820.00" y="295" text-anchor="middle" fill="#94A3B8" font-size="12">Sep 28</text><text x="972.00" y="295" text-anchor="middle" fill="#94A3B8" font-size="12">Oct 03</text><text x="500" y="321" text-anchor="middle" fill="#64748B" font-size="11">Source: github.com/eumatheussantiago</text></g></svg>