<svg xmlns="http://www.w3.org/2000/svg" viewBox="0 0 1000 340" role="img" aria-labelledby="title desc"><title id="title">eumatheussantiago contribution activity</title><desc id="desc">Public GitHub calendar from 2026-09-08 to 2026-10-08. 681 contributions.</desc><rect width="1000" height="340" rx="12" fill="#0D1117"/><g font-family="DejaVu Sans,Arial,sans-serif"><text x="500" y="34" text-anchor="middle" fill="#A78BFA" font-size="21" font-weight="600">Contribution Activity</text><text x="500" y="58" text-anchor="middle" fill="#94A3B8" font-size="12">2026-09-08 to 2026-10-08 · public GitHub calendar</text><path d="M60,268.00H972" stroke="#25263D" stroke-width="1"/><text x="46" y="272.00" text-anchor="end" fill="#94A3B8" font-size="12">0</text><path d="M60,222.50H972" stroke="#25263D" stroke-width="1"/><text x="46" y="226.50" text-anchor="end" fill="#94A3B8" font-size="12">25</text><path d="M60,177.00H972" stroke="#25263D" stroke-width="1"/><text x="46" y="181.00" text-anchor="end" fill="#94A3B8" font-size="12">50</text><path d="M60,131.50H972" stroke="#25263D" stroke-width="1"/><text x="46" y="135.50" text-anchor="end" fill="#94A3B8" font-size="12">75</text><path d="M60,86.00H972" stroke="#25263D" stroke-width="1"/><text x="46" y="90.00" text-anchor="end" fill="#94A3B8" font-size="12">100</text><polygon points="60,268 60.00,258.90 90.40,249.80 120.80,86.00 151.20,142.42 181.60,229.78 212.00,226.14 242.40,155.16 272.80,260.72 303.20,246.16 333.60,238.88 364.00,231.60 394.40,264.36 424.80,268.00 455.20,247.98 485.60,249.80 516.00,207.94 546.40,182.46 576.80,197.02 607.20,251.62 637.60,251.62 668.00,251.62 698.40,258.90 728.80,180.64 759.20,197.02 789.60,253.44 820.00,187.92 850.40,268.00 880.80,268.00 911.20,268.00 941.60,235.24 972.00,253.44 972,268" fill="#6D28D9" opacity="0.22"/><polyline points="60.00,258.90 90.40,249.80 120.80,86.00 151.20,142.42 181.60,229.78 212.00,226.14 242.40,155.16 272.80,260.72 303.20,246.16 333.60,238.88 364.00,231.60 394.40,264.36 424.80,268.00 455.20,247.98 485.60,249.80 516.00,207.94 546.40,182.46 576.80,197.02 607.20,251.62 637.60,251.62 668.00,251.62 698.40,258.90 728.80,180.64 759.20,197.02 789.60,253.44 820.00,187.92 850.40,268.00 880.80,268.00 911.20,268.00 941.60,235.24 972.00,253.44" stroke="#818CF8" stroke-width="3" fill="none" stroke-linejoin="round"/><circle cx="60.00" cy="258.90" r="3.5" fill="#C4B5FD"><title>2026-09-08: 5 contributions</title></circle><circle cx="90.40" cy="249.80" r="3.5" fill="#C4B5FD"><title>2026-09-09: 10 contributions</title></circle><circle cx="120.80" cy="86.00" r="3.5" fill="#C4B5FD"><title>2026-09-10: 100 contributions</title></circle><circle cx="151.20" cy="142.42" r="3.5" fill="#C4B5FD"><title>2026-09-11: 69 contributions</title></circle><circle cx="181.60" cy="229.78" r="3.5" fill="#C4B5FD"><title>2026-09-12: 21 contributions</title></circle><circle cx="212.00" cy="226.14" r="3.5" fill="#C4B5FD"><title>2026-09-13: 23 contributions</title></circle><circle cx="242.40" cy="155.16" r="3.5" fill="#C4B5FD"><title>2026-09-14: 62 contributions</title></circle><circle cx="272.80" cy="260.72" r="3.5" fill="#C4B5FD"><title>2026-09-15: 4 contributions</title></circle><circle cx="303.20" cy="246.16" r="3.5" fill="#C4B5FD"><title>2026-09-16: 12 contributions</title></circle><circle cx="333.60" cy="238.88" r="3.5" fill="#C4B5FD"><title>2026-09-17: 16 contributions</title></circle><circle cx="364.00" cy="231.60" r="3.5" fill="#C4B5FD"><title>2026-09-18: 20 contributions</title></circle><circle cx="394.40" cy="264.36" r="3.5" fill="#C4B5FD"><title>2026-09-19: 2 contributions</title></circle><circle cx="424.80" cy="268.00" r="3.5" fill="#C4B5FD"><title>2026-09-20: 0 contributions</title></circle><circle cx="455.20" cy="247.98" r="3.5" fill="#C4B5FD"><title>2026-09-21: 11 contributions</title></circle><circle cx="485.60" cy="249.80" r="3.5" fill="#C4B5FD"><title>2026-09-22: 10 contributions</title></circle><circle cx="516.00" cy="207.94" r="3.5" fill="#C4B5FD"><title>2026-09-23: 33 contributions</title></circle><circle cx="546.40" cy="182.46" r="3.5" fill="#C4B5FD"><title>2026-09-24: 47 contributions</title></circle><circle cx="576.80" cy="197.02" r="3.5" fill="#C4B5FD"><title>2026-09-25: 39 contributions</title></circle><circle cx="607.20" cy="251.62" r="3.5" fill="#C4B5FD"><title>2026-09-26: 9 contributions</title></circle><circle cx="637.60" cy="251.62" r="3.5" fill="#C4B5FD"><title>2026-09-27: 9 contributions</title></circle><circle cx="668.00" cy="251.62" r="3.5" fill="#C4B5FD"><title>2026-09-28: 9 contributions</title></circle><circle cx="698.40" cy="258.90" r="3.5" fill="#C4B5FD"><title>2026-09-29: 5 contributions</title></circle><circle cx="728.80" cy="180.64" r="3.5" fill="#C4B5FD"><title>2026-09-30: 48 contributions</title></circle><circle cx="759.20" cy="197.02" r="3.5" fill="#C4B5FD"><title>2026-10-01: 39 contributions</title></circle><circle cx="789.60" cy="253.44" r="3.5" fill="#C4B5FD"><title>2026-10-02: 8 contributions</title></circle><circle cx="820.00" cy="187.92" r="3.5" fill="#C4B5FD"><title>2026-10-03: 44 contributions</title></circle><circle cx="850.40" cy="268.00" r="3.5" fill="#C4B5FD"><title>2026-10-04: 0 contributions</title></circle><circle cx="880.80" cy="268.00" r="3.5" fill="#C4B5FD"><title>2026-10-05: 0 contributions</title></circle><circle cx="911.20" cy="268.00" r="3.5" fill="#C4B5FD"><title>2026-10-06: 0 contributions</title></circle><circle cx="941.60" cy="235.24" r="3.5" fill="#C4B5FD"><title>2026-10-07: 18 contributions</title></circle><circle cx="972.00" cy="253.44" r="3.5" fill="#C4B5FD"><title>2026-10-08: 8 contributions</title></circle><text x="60.00" y="295" text-anchor="middle" fill="#94A3B8" font-size="12">Sep 08</text><text x="212.00" y="295" text-anchor="middle" fill="#94A3B8" font-size="12">Sep 13</text><text x="364.00" y="295" text-anchor="middle" fill="#94A3B8" font-size="12">Sep 18</text><text x="516.00" y="295" text-anchor="middle" fill="#94A3B8" font-size="12">Sep 23</text><text x="668.00" y="295" text-anchor="middle" fill="#94A3B8" font-size="12">Sep 28</text><text x="820.00" y="295" text-anchor="middle" fill="#94A3B8" font-size="12">Oct 03</text><text x="972.00" y="295" text-anchor="middle" fill="#94A3B8" font-size="12">Oct 08</text><text x="500" y="321" text-anchor="middle" fill="#64748B" font-size="11">Source: github.com/eumatheussantiago</text></g></svg>